<?xml version="1.0" encoding="UTF-8" standalone="no"?>
<!-- Generator: Adobe Illustrator 22.1.0, SVG Export Plug-In . SVG Version: 6.00 Build 0)  -->

<svg
   version="1.2"
   id="Слой_1"
   x="0px"
   y="0px"
   viewBox="0 0 59.799999 60"
   xml:space="preserve"
   sodipodi:docname="logo_horizontal.svg"
   width="59.799999"
   height="60"
   inkscape:version="1.1.1 (3bf5ae0d25, 2021-09-20)"
   xmlns:inkscape="http://www.inkscape.org/namespaces/inkscape"
   xmlns:sodipodi="http://sodipodi.sourceforge.net/DTD/sodipodi-0.dtd"
   xmlns="http://www.w3.org/2000/svg"
   xmlns:svg="http://www.w3.org/2000/svg"><defs
   id="defs125" /><sodipodi:namedview
   id="namedview123"
   pagecolor="#ffffff"
   bordercolor="#666666"
   borderopacity="1.0"
   inkscape:pageshadow="2"
   inkscape:pageopacity="0.0"
   inkscape:pagecheckerboard="0"
   showgrid="false"
   fit-margin-top="0"
   fit-margin-left="0"
   fit-margin-right="0"
   fit-margin-bottom="0"
   inkscape:zoom="3.2025"
   inkscape:cx="74.941452"
   inkscape:cy="27.322404"
   inkscape:window-width="1920"
   inkscape:window-height="1013"
   inkscape:window-x="-9"
   inkscape:window-y="-9"
   inkscape:window-maximized="1"
   inkscape:current-layer="Слой_1" />




<g
   id="g120">
	<polygon
   fill="#c44738"
   points="23.9,6 35.9,6 35.9,7 41.9,7 41.9,0 18,0 18,18 15,18 15,24 18,24 23.9,24 23.9,18 "
   id="polygon88" />
	<polygon
   fill="#c44738"
   points="35.9,15 35.9,18 35.9,24 41.9,24 53.9,24 53.9,36 52.9,36 52.9,42 59.8,42 59.8,18 41.9,18 41.9,15 "
   id="polygon90" />
	<polygon
   fill="#b25032"
   points="24.9,11 48.9,11 51.9,8 24.9,8 "
   id="polygon92" />
	<polygon
   fill="#994629"
   points="51.9,17 51.9,8 48.9,11 48.9,17 "
   id="polygon94" />
	<polygon
   fill="#ff7640"
   points="45.9,14 45.9,17 48.9,17 48.9,11 24.9,11 24.9,14 "
   id="polygon96" />
	<polygon
   fill="#b25032"
   points="17,8 8,8 11,11 17,11 "
   id="polygon98" />
	<polygon
   fill="#ff7640"
   points="11,35 14,35 14,14 17,14 17,11 11,11 "
   id="polygon100" />
	<polygon
   fill="#994629"
   points="11,35 11,11 8,8 8,35 "
   id="polygon102" />
	<polygon
   fill="#994629"
   points="8,43 8,52 11,49 11,43 "
   id="polygon104" />
	<polygon
   fill="#ff7640"
   points="34.9,49 34.9,46 14,46 14,43 11,43 11,49 "
   id="polygon106" />
	<polygon
   fill="#b25032"
   points="34.9,49 11,49 8,52 34.9,52 "
   id="polygon108" />
	<polygon
   fill="#b25032"
   points="42.9,52 51.9,52 48.9,49 42.9,49 "
   id="polygon110" />
	<polygon
   fill="#ff7640"
   points="48.9,25 45.9,25 45.9,46 42.9,46 42.9,49 48.9,49 "
   id="polygon112" />
	<polygon
   fill="#994629"
   points="48.9,25 48.9,49 51.9,52 51.9,25 "
   id="polygon114" />
	<polygon
   fill="#c44738"
   points="23.9,45 23.9,42 23.9,36 18,36 6,36 6,24 7,24 7,18 0,18 0,42 18,42 18,45 23.9,45 "
   id="polygon116" />
	<polygon
   fill="#c44738"
   points="35.9,42 35.9,54 23.9,54 23.9,53 23.9,53 18,53 18,60 41.9,60 41.9,42 44.9,42 44.9,36 41.9,36 35.9,36 "
   id="polygon118" />
</g>
</svg>
